<mxfile host="app.diagrams.net" modified="2024-01-31T11:17:15.770Z" agent="Mozilla/5.0 (Windows NT 10.0; Win64; x64) AppleWebKit/537.36 (KHTML, like Gecko) Chrome/121.0.0.0 Safari/537.36 Edg/121.0.0.0" version="23.0.2" etag="PxWf5nqC2sZ8_ru0M4yw" type="github">
  <diagram name="Страница — 1" id="RzkpOncDnYgAre3pvNMY">
    <mxGraphModel>
      <root>
        <mxCell id="0" />
        <mxCell id="1" parent="0" />
      </root>
    </mxGraphModel>
  </diagram>
</mxfile>
